<?xml version="1.0" encoding="utf-8"?>
<!-- Generator: Adobe Illustrator 17.0.0, SVG Export Plug-In . SVG Version: 6.00 Build 0)  -->
<!DOCTYPE svg PUBLIC "-//W3C//DTD SVG 1.1//EN" "http://www.w3.org/Graphics/SVG/1.1/DTD/svg11.dtd">
<svg version="1.1" id="Capa_1" xmlns="http://www.w3.org/2000/svg" xmlns:xlink="http://www.w3.org/1999/xlink" x="0px" y="0px"
	 width="425.2px" height="425.2px" viewBox="0 0 425.2 425.2" enable-background="new 0 0 425.2 425.2" xml:space="preserve">
<rect x="0.002" y="0.001" fill="#FFFFFF" width="425.196" height="425.196"/>
<g>
	<g>
		<g>
			<rect x="306.781" y="144.007" fill="#A6DEF3" width="35.546" height="173.936"/>
			<rect x="124.02" y="149.776" fill="#A6DEF3" width="35.545" height="168.166"/>
			<rect x="194.54" y="73.597" fill="#A6DEF3" width="35.546" height="244.346"/>
			<rect x="230.086" y="161" fill="#A6DEF3" width="35.548" height="156.942"/>
			<rect x="158.996" y="121.145" fill="#A6DEF3" width="35.543" height="196.798"/>
			<rect x="265.634" y="87.826" fill="#A6DEF3" width="41.146" height="230.116"/>
			<rect x="377.871" y="73.597" fill="#A6DEF3" width="35.548" height="244.346"/>
			<rect x="342.325" y="101.384" fill="#A6DEF3" width="35.546" height="216.559"/>
			<rect x="88.476" y="129.848" fill="#A6DEF3" width="35.544" height="188.095"/>
			<rect x="11.781" y="161" fill="#A6DEF3" width="35.547" height="156.942"/>
			<rect x="47.329" y="87.826" fill="#A6DEF3" width="41.147" height="230.116"/>
		</g>
	</g>
	<g>
		<rect x="11.781" y="189.75" fill="#7BC6E2" width="32.698" height="128.192"/>
		<rect x="179.903" y="212.323" fill="#7BC6E2" width="32.696" height="105.619"/>
		<rect x="115.028" y="126.035" fill="#7BC6E2" width="32.7" height="191.907"/>
		<rect x="82.332" y="225.037" fill="#7BC6E2" width="32.696" height="92.905"/>
		<rect x="147.728" y="179.891" fill="#7BC6E2" width="32.698" height="138.052"/>
		<rect x="44.479" y="142.151" fill="#7BC6E2" width="37.853" height="175.791"/>
		<rect x="212.599" y="189.75" fill="#7BC6E2" width="32.696" height="128.192"/>
		<rect x="380.719" y="212.323" fill="#7BC6E2" width="32.7" height="105.619"/>
		<rect x="315.849" y="126.035" fill="#7BC6E2" width="32.699" height="191.907"/>
		<rect x="283.15" y="225.037" fill="#7BC6E2" width="32.699" height="92.905"/>
		<rect x="348.548" y="179.891" fill="#7BC6E2" width="32.695" height="138.052"/>
		<rect x="245.295" y="142.151" fill="#7BC6E2" width="37.854" height="175.791"/>
	</g>
</g>
<g>
	<path opacity="0.5" fill="#FFFFFF" d="M425.198,375.121v-242.54c-12.011,0.697-21.539,10.893-21.539,23.367
		c0,4.9,1.477,9.442,3.988,13.203c-11.215,1.494-19.884,11.293-19.884,23.188c0,4.725,1.377,9.114,3.726,12.793
		c-1.216-0.206-2.452-0.339-3.726-0.339c-12.62,0-22.854,10.48-22.854,23.41c0,1.813,0.224,3.568,0.603,5.262
		c-3.936-3.286-8.954-5.262-14.429-5.262c-11.75,0-21.413,9.084-22.697,20.768c-4.193-5.216-10.541-8.541-17.649-8.541
		c-4.255,0-8.224,1.213-11.632,3.286c0.146-1.076,0.249-2.167,0.249-3.286c0-12.93-10.231-23.408-22.852-23.408
		c-6.715,0-12.737,2.985-16.917,7.709c-1.644-11.279-11.106-19.939-22.573-19.939c-8.719,0-16.294,5.006-20.149,12.361
		c-4.138-4.239-9.848-6.864-16.165-6.864c-10.877,0-19.964,7.79-22.271,18.215c-3.728-2.707-8.271-4.311-13.187-4.311
		c-11.131,0-20.392,8.153-22.429,18.943c-3.449-2.14-7.48-3.395-11.81-3.395c-6.879,0-13.035,3.131-17.227,8.06
		c-3.513-8.295-11.569-14.103-20.964-14.103c-0.663,0-1.318,0.045-1.969,0.102c1.256-2.9,1.969-6.104,1.969-9.483
		c0-12.93-10.232-23.409-22.852-23.409c-4.886,0-9.399,1.583-13.114,4.256c-2.951-5.945-8.296-10.41-14.746-12.084
		c3.126-4.005,5.006-9.073,5.006-14.602c0-12.929-10.229-23.407-22.848-23.407c-0.15,0-0.297,0.02-0.445,0.022
		c0.285-1.475,0.442-2.997,0.442-4.557c0-12.928-10.23-23.408-22.854-23.408c-0.472,0-0.936,0.02-1.4,0.049v247.942H425.198z"/>
	<path fill="#FFFFFF" d="M0.004,375.121h425.194V197.593c0-10.313-8.178-18.674-18.263-18.674c-10.088,0-18.263,8.36-18.263,18.674
		c0,3.143,0.767,6.102,2.109,8.7c-2.335-1.107-4.927-1.744-7.671-1.744c-10.089,0-18.266,8.36-18.266,18.673
		c0,3.909,1.18,7.535,3.188,10.531c-8.964,1.193-15.89,9.011-15.89,18.498c0,3.769,1.1,7.27,2.98,10.206
		c-0.974-0.165-1.964-0.271-2.98-0.271c-10.087,0-18.266,8.359-18.266,18.675c0,1.444,0.18,2.847,0.482,4.196
		c-3.144-2.62-7.154-4.196-11.528-4.196c-9.392,0-17.116,7.246-18.14,16.564c-3.353-4.158-8.427-6.811-14.108-6.811
		c-3.399,0-6.571,0.965-9.295,2.622c0.117-0.859,0.2-1.728,0.2-2.622c0-10.314-8.178-18.673-18.265-18.673
		c-5.365,0-10.179,2.381-13.521,6.149c-1.311-8.997-8.875-15.904-18.041-15.904c-6.967,0-13.02,3.992-16.102,9.861
		c-3.306-3.383-7.874-5.477-12.92-5.477c-8.694,0-15.953,6.215-17.798,14.531c-2.978-2.16-6.609-3.44-10.541-3.44
		c-8.893,0-16.293,6.505-17.921,15.11c-2.756-1.707-5.979-2.709-9.437-2.709c-5.499,0-10.421,2.498-13.769,6.43
		c-2.808-6.615-9.25-11.25-16.757-11.25c-0.531,0-1.054,0.037-1.573,0.083c1.003-2.313,1.573-4.87,1.573-7.567
		c0-10.311-8.176-18.671-18.264-18.671c-3.902,0-7.512,1.263-10.477,3.394c-2.36-4.741-6.634-8.302-11.787-9.637
		c2.498-3.194,4-7.24,4-11.649c0-10.313-8.174-18.672-18.261-18.672c-0.122,0-0.237,0.017-0.354,0.018
		c0.228-1.178,0.35-2.392,0.35-3.637c0-10.311-8.177-18.673-18.265-18.673c-9.704,0-17.619,7.746-18.204,17.52
		c-2.128-0.89-4.452-1.387-6.896-1.387c-10.087,0-18.262,8.36-18.262,18.674c0,0.012,0.002,0.026,0.002,0.037V375.121z"/>
</g>
<rect x="0.002" y="373.916" fill="#B9DB9C" width="425.196" height="51.283"/>
<path fill="#3CAA9F" d="M47.06,347.074c0.954,0,1.874,0.139,2.753,0.375c-0.917-1.826-1.446-3.879-1.446-6.063
	c0-7.473,6.059-13.531,13.532-13.531c6.165,0,11.356,4.125,12.989,9.762c1.942-2.367,4.89-3.879,8.191-3.879
	c5.849,0,10.59,4.742,10.59,10.59c0,1.094-0.166,2.148-0.473,3.139c0.9-0.248,1.846-0.393,2.826-0.393
	c5.85,0,10.591,4.742,10.591,10.59c0,5.85-4.741,10.592-10.591,10.592H47.06c-5.849,0-10.59-4.742-10.59-10.592
	C36.47,351.816,41.211,347.074,47.06,347.074z"/>
<path fill="#3CAA9F" d="M184.63,350.836c0.785,0,1.541,0.113,2.265,0.309c-0.755-1.502-1.189-3.191-1.189-4.986
	c0-6.147,4.982-11.129,11.129-11.129c5.07,0,9.34,3.393,10.684,8.027c1.598-1.945,4.021-3.19,6.736-3.19
	c4.811,0,8.71,3.898,8.71,8.709c0,0.9-0.137,1.768-0.389,2.582c0.74-0.203,1.519-0.322,2.324-0.322c4.811,0,8.71,3.898,8.71,8.709
	c0,4.811-3.899,8.711-8.71,8.711h-40.27c-4.811,0-8.71-3.9-8.71-8.711C175.92,354.734,179.819,350.836,184.63,350.836z"/>
<path fill="#3CAA9F" d="M327.912,352.193c0.724,0,1.421,0.105,2.088,0.283c-0.696-1.383-1.098-2.941-1.098-4.596
	c0-5.668,4.595-10.262,10.263-10.262c4.675,0,8.611,3.127,9.85,7.402c1.473-1.795,3.708-2.941,6.212-2.941
	c4.435,0,8.03,3.596,8.03,8.031c0,0.828-0.126,1.629-0.358,2.381c0.683-0.189,1.399-0.299,2.144-0.299
	c4.435,0,8.031,3.596,8.031,8.031c0,4.435-3.596,8.031-8.031,8.031h-37.131c-4.436,0-8.031-3.596-8.031-8.031
	C319.881,355.789,323.477,352.193,327.912,352.193z"/>
<ellipse fill="#F1DBC2" cx="212.6" cy="378.748" rx="203.268" ry="16.424"/>
<g>
	<ellipse fill="#F0C7A3" cx="320.672" cy="379.203" rx="60.57" ry="6.943"/>
	<ellipse fill="#F0C7A3" cx="241.82" cy="380.029" rx="46.911" ry="6.117"/>
	<path fill="none" stroke="#21409A" stroke-width="2.1351" stroke-miterlimit="10" d="M256.129,241.736c0,0,8.393,0.514-3.419,4.916
		l-28.346,85.797"/>
	<g>
		<path fill="#EDDED2" d="M217.259,359.215l1.645,14.49c0,0,0.92,3.273-1.278,4.398c0,0-1.842,0.461-1.076,2.531h3.786
			c2.071-0.738,1.79-3.787,1.79-3.787c-0.078-1.955,1.075-2.326,1.075-2.326l3.151-15.707l24.339-3.887
			c0,0,0.267,8.309,12.516,11.891c0,0,2.967,5.014,0.922,9.926c0,0-4.911,0.514-2.764,3.889h3.991c0,0,2.375-1.604,3.03-6.514
			v-6.686c0,0,0.253-2.252-0.728-3.275c0,0-3.232-5.891-1.988-11.906c3.365-16.27-5.599-18.918-5.599-18.918l-28.173-2.531
			c-5.218-0.922-8.001-3.541-8.001-3.541c-0.614-1.168-1.262-2.283-1.935-3.352c-5.228-0.496-11.69,3.643-12.966,8.525
			c0.251,1.471,0.198,3.41-0.714,5.797h-0.061c0,0-1.843,5.77,1.842,14.367C210.063,352.6,212.506,356.535,217.259,359.215z"/>
		<path fill="#EDDED2" d="M262.365,339.457c0,0,11.893-13.105-4.539-19.859c0.04,0.022,1.48-0.705,1.604-0.74
			c6.957-2.086,12.538,4.316,12.551,10.803c0.008,5.48-3.486,9.887-7.598,13.199L262.365,339.457z"/>
		<path fill="#F4D4BD" d="M210.063,352.6c0,0,3.727,10.797,0.45,24.916c0,0-3.315,1.072-1.883,3.119h2.881
			c1.842-0.336,2.466-4.268,2.466-4.268c0.793-2.32,1.449-2.688,1.449-2.688l1.594-11.105"/>
		<path fill="#DFCFBB" d="M210.063,352.6c0,0,3.727,10.797,0.45,24.916c0,0-3.315,1.072-1.883,3.119h2.881
			c1.842-0.336,2.466-4.268,2.466-4.268c0.793-2.32,1.449-2.688,1.449-2.688l3.554-15.267L210.063,352.6z"/>
		<path fill="#DFCFBB" d="M239.419,356.283c0,0,4.604,7.16,13.2,10.539c0,0,2.966,5.012,0.92,9.924c0,0-4.909,0.512-2.763,3.889
			h3.992c0,0,2.377-1.604,3.03-6.514v-6.688c0,0,0.251-2.25-0.728-3.273c0,0-4.276-5.924-2.895-11.908L239.419,356.283"/>
		<g>
			<path fill="#EDDED2" d="M228.237,319.576c-0.175-2.561-0.882-5.645-2.181-7.824c-3.734-6.264-12.321-6.846-18.04-3.996
				c-1.703,0.85-3.333,2.277-4.359,3.996c-1.298,2.18-2.007,5.264-2.181,7.824c-0.339,5.02,1.515,8.725,3.874,12.873
				c2.079,3.654,5.14,6.348,9.506,6.348c4.368,0,7.429-2.693,9.508-6.348C226.724,328.301,228.576,324.596,228.237,319.576z"/>
			<path fill="#FFFFFF" d="M218.805,331.756c-2.278-1.787-4.685-2.559-7.345-0.902c-1.13,0.703-2.227,1.299-3.446,1.828
				c-0.91,0.398-1.672,0.305-2.501,0.025c2.074,3.518,5.085,6.09,9.344,6.09c4.269,0,7.283-2.578,9.356-6.105
				C222.433,333.334,220.401,333.01,218.805,331.756z"/>
			<g>
				<path fill="#482C1E" d="M209.138,315.533c-2.677,0.244-4.06,3.832-4.323,6.1c-0.098,0.857-0.122,2.23,0.779,2.688
					c0.544,0.275,1.342,0.342,1.939,0.434c1.093,0.166,2.207,0.141,3.308,0.191c0.745,0.037,1.637-0.014,2.117-0.672
					c0.538-0.744,0.357-1.938,0.28-2.791C213.036,319.16,212.193,315.258,209.138,315.533z"/>
			</g>
			<g>
				<ellipse fill="#250E00" cx="220.665" cy="320.355" rx="1.473" ry="2.289"/>
				<circle fill="#FFFFFF" cx="221.868" cy="319.564" r="0.673"/>
			</g>
			<g>
				<ellipse fill="#250E00" cx="209.051" cy="320.355" rx="1.472" ry="2.289"/>
				<circle fill="#FFFFFF" cx="207.945" cy="319.564" r="0.673"/>
			</g>
			<path fill="#250E00" d="M217.525,333.217c0,0.742-1.131,2.203-2.527,2.203c-1.396,0-2.529-1.461-2.529-2.203
				c0-0.74,1.133-1.342,2.529-1.342C216.394,331.875,217.525,332.477,217.525,333.217z"/>
			<g>
				<g>
					<path fill="#563728" d="M225.497,311.07c0,0-1.524,0.498-0.882,2.266c0,0,4.375,4.908,3.772,9.781c0,0-0.163,7.234,1.834,8.297
						c0,0,2.358,1.467,4.669-2.615c2.348-4.139,3.902-11.824-0.165-15.402C232.664,311.586,228.245,310.172,225.497,311.07z"/>
				</g>
				<g>
					<path fill="#563728" d="M204.218,311.07c0,0,1.524,0.498,0.881,2.266c0,0-4.376,4.908-3.774,9.781c0,0,0.165,7.234-1.834,8.297
						c0,0-2.354,1.467-4.669-2.615c-2.345-4.139-3.9-11.824,0.165-15.402C197.048,311.586,201.468,310.172,204.218,311.07z"/>
				</g>
			</g>
		</g>
	</g>
	<g>
		<polygon fill="#5175AE" points="284.061,221.82 290.12,371.76 299.54,371.76 315.375,221.82 		"/>
		<path fill="#421A00" d="M290.12,370.338l-16,4.102c0,0-2.052,0.615-2.052,3.486h27.473l-0.395-7.588H290.12z"/>
		<path fill="#421A00" d="M348.51,363.488l-10.011,13.141c0,0-1.228,1.752,0.552,4.006l21.558-17.029l-5.016-5.713L348.51,363.488z"
			/>
		<polygon fill="#5A81C2" points="284.061,226.758 300.732,257.906 311.575,300.139 348.51,363.488 355.594,357.892 
			329.275,292.574 325.064,227.037 		"/>
		<g>
			<rect x="300.49" y="138.824" fill="#F8B78F" width="11.085" height="14.837"/>
		</g>
		<path fill="#F8B78F" d="M331.118,160.079c-3.083-4.772-7.929-6.065-7.929-6.065l-11.615-4.303H300.49l-11.607,4.303
			c0,0-4.848,1.293-7.931,6.065H331.118z"/>
		<path fill="#474CA0" d="M330.212,242.84l-1.938-66.415l5.121-10.181c-1.496-9.912-10.206-12.23-10.206-12.23l-8.858-3.282
			c-0.887,3.738-8.297,3.738-8.297,3.738c-9.228,0-8.56-3.641-8.56-3.641l-8.591,3.185c0,0-8.712,2.317-10.207,12.23l4.516,12.394
			l-2.239,64.203H330.212z"/>
		<g>
			<g>
				<path fill="#FBB88E" d="M338.95,249.957c0,0-1.67-35.07-13.078-64.81l11.126-1.95c0,0,9.836,26.838,7.915,65.637L338.95,249.957
					z"/>
				<g>
					<polygon fill="#F8B78F" points="344.389,254.73 345.002,247.383 339.003,246.457 338.605,251.041 					"/>
					<g>
						<g>
							<path fill="#FBB88E" d="M338.217,255.59l-0.349,3.631c-2.759-0.15-1.749-4.582-1.749-4.582s1.706-5.486,7.088-4.207
								c1.75,0.361,2.403,5.287,2.403,5.287c-0.092,1.904-0.817,4.791-0.817,4.791c-0.489,1.227-1.827,0.533-1.827,0.533
								c-0.706,1.344-1.708,0.211-1.708,0.211c-1.008,1.119-1.693-0.168-1.693-0.168c-1.336,1.178-2.059-0.568-2.059-0.568
								L338.217,255.59z"/>
						</g>
					</g>
				</g>
			</g>
			<path fill="#474CA0" d="M335.939,249.223c-2.543-48.104-20.564-72.89-20.564-72.89c-6.074-11.859,3.308-18.23,3.308-18.23
				c7.63-6.418,12.886,1.726,12.886,1.726c3.116,5.595,19.98,48.216,14.042,90.128C345.611,249.957,341.963,252.092,335.939,249.223
				z"/>
		</g>
		<g>
			<g>
				<path fill="#FBB88E" d="M253.931,243.889c0,0,18.265-31.079,26.132-61.943l10.207,4.834c0,0-6.846,29.072-30.821,59.634
					L253.931,243.889z"/>
				<g>
					<polygon fill="#F8B78F" points="255.612,250.924 260.357,245.281 255.996,241.061 253.021,244.572 					"/>
					<g>
						<g>
							<path fill="#FBB88E" d="M250.079,248.061l-2.382,2.764c-2.165-1.715,1.219-4.752,1.219-4.752s4.562-3.49,8.215,0.662
								c1.221,1.305-1.091,5.705-1.091,5.705c-1.176,1.502-3.435,3.439-3.435,3.439c-1.106,0.717-1.799-0.621-1.799-0.621
								c-1.352,0.688-1.518-0.814-1.518-0.814c-1.468,0.332-1.283-1.117-1.283-1.117c-1.771,0.191-1.352-1.652-1.352-1.652
								L250.079,248.061z"/>
						</g>
					</g>
				</g>
			</g>
			<path fill="#474CA0" d="M251.895,241.549c25.71-40.738,24.687-72.861,24.687-72.861c1.892-13.191,13.232-12.972,13.232-12.972
				c9.935-0.832,9.521,8.852,9.521,8.852c-0.687,6.369-10.912,52.384-39.966,83.169
				C259.368,247.736,255.156,247.371,251.895,241.549z"/>
		</g>
		<g>
			<path fill="#C15A33" d="M286.596,120.278c-0.254-2.02,0.311-5.257,0.259-10.044c-0.023-2.257,0.42-5.663,3.225-5.949
				c3.887-0.397,5.088,6.318,5.317,9.227c0.315,4.012-0.679,8.346-1.453,12.271c-0.278,1.418-0.247,4.251-1.843,4.934
				c-1.368,0.587-2.764-0.792-3.458-1.818C286.96,126.425,286.957,123.136,286.596,120.278z"/>
			<path fill="#F8B78F" d="M289.482,136.758c1.538,6.019,4.248,7.679,4.248,7.679l3.631,0.709c2.093-0.267,5.697-1.118,5.697-1.118
				c8.297-2.822,11.053-2.649,12.765-6.964c0.055-0.133,5.766-22.428,5.766-22.428c1.062-11.591-11.067-14.003-12.902-14.305
				c-1.81-0.417-13.364-3.628-16.775,7.498C291.911,107.829,286.87,120.723,289.482,136.758z"/>
			<path fill="#E6AB86" d="M313.173,139.013c-3.337,2.579-8.986,4.27-13.144,4.709c-7.381,0.781-9.046-4.657-10.314-10.414
				c0.111,1.323,0.259,2.669,0.484,4.05c1.435,5.614,3.961,7.163,3.961,7.163l3.389,0.66c1.952-0.248,5.316-1.041,5.316-1.041
				c7.74-2.631,10.308-2.473,11.907-6.497c0.009-0.016,0.111-0.415,0.284-1.076C314.545,137.505,313.967,138.399,313.173,139.013z"
				/>
			<path fill="#C15A33" d="M314.147,98.322c3.906,0.317,6.636,3.566,8.69,7.1c2.182,3.757,4.156,7.99,3.967,12.081
				c-0.147,3.174-1.79,3.263-2.249,6.51c-0.509,3.61-1.852,6.886-3.564,9.905c-3.981,5.391-8.158,6.508-8.158,6.508
				c2.601-3.233,3.165-6.333,3.165-6.333c0.998-3.952,0.068-1.709,0.979-4.743c1.092-3.642,0.772-8.518-0.851-12.257
				c-1.437-3.308-2.434-3.238-5.492-4.039c-3.93-1.031-7.321-1.412-11.402-1.479c-3.731-0.059-7.793-0.167-10.819-2.659
				c-2.787-2.298-3.818-7.38-2.747-10.877c0,0,2.236,4.105,5.706,2.859c0,0-3.292-2.224-1.657-6.761
				C289.715,94.136,294.13,98.413,314.147,98.322z"/>
			<path fill="#F8B78F" d="M316.212,127.144c0,0,2.05-4.471,5.276-1.823c0,0,1.468,1.147-0.342,4.137c0,0-2.625,4.301-5.772,1.918
				L316.212,127.144z"/>
			<path fill="#C15A33" d="M316.533,116.721c0,0-0.015,8.003-1.484,12.245l1.561,0.309c0,0,0.818-5.487,3.642-5.552L316.533,116.721
				z"/>
		</g>
	</g>
</g>
<g>
	<path fill="#E88A51" d="M85.156,103.332c-2.025,2.479-3.388,4.557-4.324,7.651c-1.747,5.774-1.907,10.82-1.121,16.719
		c0.617,4.628,0.303,9.399,0.515,14.109c0.305,6.78,0.604,13.517-0.238,20.352c-0.394,3.197-1.149,7.784,0.661,10.611
		c3.611,5.637,14.935,5.899,20.707,5.466c8.788-0.66,13.272-7.915,15.113-15.785c1.668-7.139,1.672-14.33,2.552-21.646
		c1.137-9.46,1.676-22.514-1.379-31.554c-0.759-2.251-6.052-1.076-7.873-2.616c-2.16-1.826-4.13-4.275-6.631-5.687
		c-2.613-1.473-7.094-1.728-10.045-1.733C90.229,99.213,87.057,101.005,85.156,103.332z"/>
	<ellipse fill="#F0C7A3" cx="119.735" cy="378.29" rx="56.719" ry="7.603"/>
	<g>
		<g>
			<path fill="#4D4B85" d="M100.031,380.645c-0.3-4.496-16.728-8.029-14.317-7.355c0,0-1.802-1.551-4.056-0.564
				c0,0-0.921,0.762-0.609,2.449c0,0,0.355,1.68,0.222,3.174c0,0,0.311,0.426,1.29,0.381l1.201-1.602l4.313,2.625
				C88.075,379.752,94.435,383.131,100.031,380.645z"/>
			<path fill="#F8B78F" d="M81.716,373.754c0,0,8.422,5.301,11.98,3.877c0,0,1.661-0.475,0-1.305c0,0-3.021-1.449-8.007-2.67
				L81.716,373.754z"/>
		</g>
		<g>
			<path fill="#4D4B85" d="M123.517,379.75c-0.3-4.498-16.728-8.031-14.317-7.359c0,0-1.801-1.549-4.055-0.564
				c0,0-0.921,0.764-0.609,2.449c0,0,0.356,1.682,0.222,3.176c0,0,0.312,0.424,1.29,0.381l1.201-1.602l4.313,2.625
				C111.561,378.855,117.92,382.234,123.517,379.75z"/>
			<path fill="#F8B78F" d="M105.202,372.857c0,0,8.422,5.299,11.981,3.875c0,0,1.661-0.473,0-1.303c0,0-3.022-1.449-8.008-2.672
				L105.202,372.857z"/>
		</g>
		<path fill="#F8B78F" d="M112.452,161.099c0,0-4.582,4.56-0.489,12.388l9.833,37.067c0,0,5.63,22.268,8.636,30.247
			c0,0,3.155,0.207,5.764-1.621c0,0-5.674-45.821-13.821-77.105C122.376,162.075,118.454,157.145,112.452,161.099z"/>
		<g>
			<polygon fill="#F8B78F" points="79.888,232.045 101.969,232.045 97.446,310.188 85.689,373.656 81.716,373.754 83.257,308.633 
							"/>
			<polygon fill="#F8B78F" points="94.435,231.176 105.202,372.857 109.175,372.758 118.454,231.176 			"/>
			<path fill="#4D4B85" d="M78.181,233.529c0,0-1.719,5.65,0.268,16.402c0,0,2.536,9.039,3.267,33.09c0,0,19.196,3.563,37.473-0.709
				l0.236-48.783H78.181"/>
		</g>
		<g>
			<polygon fill="#F8B78F" points="131.365,247.24 130.523,240.271 136.196,239.18 136.737,243.527 			"/>
			<g>
				<g>
					<path fill="#FBB88E" d="M137.267,247.84l0.46,3.441c2.62-0.242,1.501-4.42,1.501-4.42s-1.817-5.158-6.891-3.752
						c-1.651,0.406-2.099,5.117-2.099,5.117c0.156,1.809,0.945,4.527,0.945,4.527c0.509,1.146,1.757,0.439,1.757,0.439
						c0.721,1.254,1.634,0.143,1.634,0.143c0.997,1.027,1.603-0.221,1.603-0.221c1.311,1.074,1.939-0.613,1.939-0.613
						L137.267,247.84z"/>
				</g>
			</g>
		</g>
		<g>
			<rect x="93.252" y="141.865" fill="#F8B78F" width="10.54" height="14.11"/>
		</g>
		<path fill="#F8B78F" d="M122.376,162.075c-2.932-4.537-7.541-5.766-7.541-5.766l-11.044-4.092H93.252l-11.038,4.092
			c0,0-4.609,1.229-7.541,5.766H122.376z"/>
		<path fill="#5C79BC" d="M119.425,173.487c0,0,2.506,8.54-4.668,15.301l5.941,44.741H77.005c2.42-15.542,7.677-29.481,7.677-29.481
			c1.354-14.37-5.774-26.43-5.774-26.43l-6.399-9.68c1.422-9.425,9.706-11.629,9.706-11.629l8.168-3.027
			c0,0,3.408,5.373,12.18,5.373c0,0,3.832-1.605,4.674-5.161l8.237,3.03C115.474,156.523,112.533,160.974,119.425,173.487z"/>
		<g>
			<path fill="#F8B78F" d="M90.958,138.366c0.448,1.036,1.069,1.994,1.94,2.83c3.869,3.723,9.038,6.328,14.464,6.328
				c14.162-6.186,9.572-33.455,9.572-33.455c-2.128-13.05-13.292-13.022-13.292-13.022c-8.434-0.366-16.128,3.617-17.423,12.502
				c-0.497,3.403,0.159,7.057,0.33,10.461c0.125,2.502,0.433,4.993,1.232,7.378C88.595,133.822,89.942,136.02,90.958,138.366z"/>
			<path fill="#E6AB86" d="M114.757,139.838c-1.563,3.357-3.909,6.162-7.395,7.686c-5.426,0-10.595-2.605-14.464-6.328
				c-0.871-0.836-1.492-1.794-1.94-2.83c-0.185-0.427-0.388-0.845-0.589-1.263C97.131,144.79,106.984,152.216,114.757,139.838z"/>
			<path fill="#F8B78F" d="M89.475,128.419c0,0-1.116-4.644-4.686-2.726c0,0-1.612,0.816-0.449,4.005c0,0,1.693,4.588,5.138,2.911
				L89.475,128.419z"/>
		</g>
		<g>
			<path fill="#F8B78F" d="M79.641,230.225l-3.553,3.43L56.15,204.048c-4.681-5.83-1.254-10.689-1.254-10.689l17.461-27.92
				c5.056-10.631,10.801-6.929,10.801-6.929c7.77,8.154,1.297,16.932,1.297,16.932l-19.865,21.818
				C64.591,197.259,72.508,210.089,79.641,230.225z"/>
			<path fill="#F8B78F" d="M74.492,235.463c-1.372,0.852-2.904-0.498-3.754,1.24c-1.625,3.324,3.939,3.943,5.699,3.09
				c1.938-0.939,4.478-3.779,4.686-5.988c0.162-1.723-1.616-4.945-3.668-4.439C74.721,230.039,76.707,234.086,74.492,235.463z"/>
		</g>
	</g>
	<path fill="#E88A51" d="M93.252,117.323c0,0-2.883-0.474-3.774,4.744c0,0-1.611,4.301-0.001,8.437c0,0-4.66-2.372-5.558-10.386
		c0,0-4.031-19.095,10.489-22.723c0,0,16.58-5.866,23.235,8.692c0,0,3.133,5.763-0.086,14.312c0,0,0.549,0.573-0.701-3.581
		c0,0-8.451,3.169-18.331,0.967l-0.527-4.593l-1.394,4.539C96.603,117.731,93.693,118.628,93.252,117.323z"/>
	<path fill="none" stroke="#8D4F87" stroke-width="2.1351" stroke-miterlimit="10" d="M137.267,247.754c0,0-7.499,0.264-6.083,4.914
		l7.09,84.994"/>
	<g>
		<g>
			<g>
				<path fill="#C87847" d="M157.158,376.748l-6.366-2.35c4.209-3.23,4.751-5.729,4.751-5.729c1.908-4.844-4.406-4.701-4.406-4.701
					c2.057-14.982-5.391-21.441-5.391-21.441h-6.286h-1.33h-6.283c0,0-7.448,6.459-5.392,21.441c0,0-6.316-0.143-4.406,4.701
					c0,0,0.542,2.498,4.751,5.729l-6.367,2.35c0,0-2.255,0.588-1.789,2.643c0,0,0.111,1.941,3.928,0.766l9.865-4.258h5.693h1.33
					h5.695l9.865,4.258c3.818,1.176,3.927-0.766,3.927-0.766C159.415,377.336,157.158,376.748,157.158,376.748z"/>
			</g>
		</g>
		<g>
			<path fill="#EDDED2" d="M145.619,342.527h-6.531h-0.553H132c0,0-3.415,4.363-3.081,15.818c0.064,0.617,0.125,1.238,0.183,1.857
				c0.267,2.772,0.54,5.547,0.829,8.318c0.141,1.33,0.287,2.662,0.396,3.992c0.088,1.037,0.41,2.266,0.171,3.289
				c-1.012,0.607-2.288,3.06,0.059,3.588h4.823c2.249-1.438-0.296-3.805-0.296-3.805l-0.354-6.5c0,0-1.134-10.801,4.081-11.379
				c5.217,0.578,4.083,11.379,4.083,11.379l-0.354,6.5c0,0-2.547,2.367-0.295,3.805h4.823c2.345-0.527,1.067-2.98,0.059-3.588
				c-0.239-1.023,0.082-2.252,0.169-3.289c0.108-1.33,0.256-2.662,0.395-3.992c0.289-2.771,0.563-5.547,0.83-8.318
				c0.06-0.619,0.121-1.24,0.185-1.857C149.035,346.891,145.619,342.527,145.619,342.527z"/>
		</g>
		<g>
			<g>
				<path fill="#7E5341" d="M144.078,322.064c0,0,0.628-3.018,6.241-3.881l4.376,1.939c0,0-0.376,3.232,0,5.389
					c0,0-1.996,2.801-6.307,4.525L144.078,322.064z"/>
				<path fill="#563728" d="M150.319,318.184l7.161,8.527c0,0,1.596,0.918,1.401-0.615l-1.457-7.912H150.319z"/>
			</g>
			<g>
				<path fill="#7E5341" d="M134.009,322.064c0,0-0.628-3.018-6.241-3.881l-4.376,1.939c0,0,0.375,3.232,0,5.389
					c0,0,1.996,2.801,6.307,4.525L134.009,322.064z"/>
				<path fill="#563728" d="M127.768,318.184l-7.16,8.527c0,0-1.597,0.918-1.402-0.615l1.456-7.912H127.768z"/>
			</g>
			<path fill="#C87847" d="M151.893,329.508c-0.167-2.248-0.851-4.957-2.104-6.871c-3.603-5.5-11.893-6.008-17.411-3.506
				c-1.646,0.744-3.218,1.998-4.207,3.506c-1.255,1.914-1.937,4.623-2.106,6.871c-0.326,4.406,1.461,7.658,3.738,11.301
				c2.007,3.211,4.962,5.574,9.177,5.574c4.214,0,7.17-2.363,9.174-5.574C150.432,337.166,152.221,333.914,151.893,329.508z"/>
			<path fill="#E6E7E8" d="M143.978,343.451c-3.361,1.063-7.345,0.588-10.057-1.783c-2.671-2.338-3.568-5.762-3.766-9.193
				c-0.3-5.207,1.166-10.815,4.989-14.291c-0.972,0.238-1.903,0.555-2.768,0.947c-1.646,0.744-3.218,1.998-4.207,3.506
				c-1.255,1.914-1.937,4.623-2.106,6.871c-0.326,4.406,1.461,7.658,3.738,11.301c2.007,3.211,4.962,5.574,9.177,5.574
				c3.936,0,6.775-2.063,8.766-4.951C146.61,342.309,145.357,343.017,143.978,343.451z"/>
			<g>
				<path fill="#E6E7E8" d="M141.376,348.211c2.117-0.42,4.029-1.352,5.732-2.598c-0.755-2.146-1.489-3.086-1.489-3.086H132
					c0,0-0.594,0.764-1.262,2.482C133.689,347.512,137.476,348.984,141.376,348.211z"/>
			</g>
			<path fill="#EDDED2" d="M143.881,340.699c-2.049-0.713-3.211-2.297-5.607-2.049c-2.962,0.309-5.333,3.428-8.274,2.443
				c2,3.061,4.893,5.289,8.98,5.289c4.045,0,6.919-2.188,8.918-5.199C146.552,341.264,145.23,341.166,143.881,340.699z"/>
			<g>
				<ellipse fill="#250E00" cx="144.078" cy="330.191" rx="1.293" ry="2.012"/>
				<circle fill="#FFFFFF" cx="145.134" cy="329.498" r="0.59"/>
			</g>
			<g>
				<ellipse fill="#250E00" cx="133.881" cy="330.191" rx="1.293" ry="2.012"/>
				<circle fill="#FFFFFF" cx="132.911" cy="329.498" r="0.59"/>
			</g>
			<path fill="#250E00" d="M141.323,341.484c0,0.65-0.994,1.934-2.22,1.934c-1.226,0-2.22-1.283-2.22-1.934
				c0-0.65,0.994-1.178,2.22-1.178C140.329,340.307,141.323,340.834,141.323,341.484z"/>
		</g>
	</g>
	<path fill="#E88A51" d="M91.922,145.066c0-6.837,0.063-13.493,1.002-20.219c0.449-3.221,0.741-6.483,1.247-9.694
		c0.37-2.345,1.612-5.145,0.832-7.54c-1.949-5.995-5.814-2.702-8.968-2.299c-2.63,0.334-4.329,3.682-5.843,8.051
		c-1.732,5.002-2.306,22.929-2.279,28.19c0.03,6.041,0.992,12.21,1.488,18.232c0.401,4.879,1.023,10.964,3.981,14.956
		c5.105,6.892,17.755,8.023,17.755,8.023S92.521,172.575,91.922,145.066z"/>
</g>
</svg>
